<svg width="612" height="612" viewBox="0 0 612 612" fill="none" xmlns="http://www.w3.org/2000/svg">
<path d="M306 0C137.012 0 0 137.012 0 306C0 474.988 137.012 612 306 612C474.988 612 612 474.988 612 306C612 137.012 474.988 0 306 0ZM306 554.625C168.912 554.625 57.375 443.088 57.375 306C57.375 168.912 168.912 57.375 306 57.375C443.088 57.375 554.625 168.912 554.625 306C554.625 443.088 443.088 554.625 306 554.625ZM411.188 229.5C402.811 229.5 395.352 233.134 390.112 238.852L390.036 238.795L306 330.48L221.946 238.794L221.869 238.851C216.648 233.133 209.189 229.499 200.812 229.499C184.977 229.499 172.124 242.351 172.124 258.187C172.124 265.665 175.05 272.397 179.736 277.522L179.659 277.579L284.847 392.329C290.298 398.239 297.948 401.624 305.999 401.624C314.05 401.624 321.7 398.239 327.132 392.329L432.32 277.58L432.244 277.523C436.949 272.398 439.875 265.666 439.875 258.188C439.875 242.352 427.023 229.5 411.188 229.5Z" fill="#39FF14"/>
</svg>
